/* XPM */
static char * bells32_xpm[] = {
"32 32 555 2",
"  	c None",
". 	c #D1D0D2",
"+ 	c #B5B5B7",
"@ 	c #A3A4A5",
"# 	c #959496",
"$ 	c #8B8A8C",
"% 	c #8B898B",
"& 	c #A1A0A3",
"* 	c #BABABD",
"= 	c #D9D9DA",
"- 	c #B1B0B1",
"; 	c #868688",
"> 	c #78797B",
", 	c #7D7C7E",
"' 	c #8F8F91",
") 	c #99999B",
"! 	c #98989A",
"~ 	c #888789",
"{ 	c #929193",
"] 	c #B2B2B5",
"^ 	c #95969A",
"/ 	c #AEAEB1",
"( 	c #AEADB1",
"_ 	c #B3B2B3",
": 	c #8C8D8F",
"< 	c #9C9D9F",
"[ 	c #BBBBBD",
"} 	c #D7D7D9",
"| 	c #E1E1E4",
"1 	c #DDDDE0",
"2 	c #D7D7DA",
"3 	c #D1D0D4",
"4 	c #C9C9CD",
"5 	c #C0C0C3",
"6 	c #AAA9AD",
"7 	c #99999D",
"8 	c #97989C",
"9 	c #96969B",
"0 	c #B8B8BC",
"a 	c #BCBEC1",
"b 	c #DEDEDE",
"c 	c #A3A3A6",
"d 	c #A2A2A3",
"e 	c #D2D2D3",
"f 	c #E8E8E9",
"g 	c #E5E5E7",
"h 	c #E3E2E5",
"i 	c #E0E0E3",
"j 	c #DBDBDE",
"k 	c #D5D5D9",
"l 	c #CECFD2",
"m 	c #C8C7CB",
"n 	c #A8A5A9",
"o 	c #98989E",
"p 	c #95969B",
"q 	c #919196",
"r 	c #9D9C9F",
"s 	c #ABABAC",
"t 	c #414141",
"u 	c #A9ACAF",
"v 	c #D2D1D2",
"w 	c #9D9C9E",
"x 	c #A8A8AA",
"y 	c #E7E6E8",
"z 	c #EBEBED",
"A 	c #EAEAEA",
"B 	c #E7E7E8",
"C 	c #E3E3E6",
"D 	c #D7D7DB",
"E 	c #D2D2D6",
"F 	c #CBCBCF",
"G 	c #C3C3C7",
"H 	c #A9A8AC",
"I 	c #9A9B9F",
"J 	c #97969B",
"K 	c #9B9A9F",
"L 	c #BFC0C4",
"M 	c #575758",
"N 	c #424243",
"O 	c #ACAFB2",
"P 	c #D7D7D7",
"Q 	c #99989B",
"R 	c #9D9DA1",
"S 	c #E0E0E0",
"T 	c #EDEDEE",
"U 	c #EBEBEC",
"V 	c #E8E8EA",
"W 	c #E6E6E9",
"X 	c #E4E4E6",
"Y 	c #DCDCE0",
"Z 	c #D8D8DC",
"` 	c #D2D1D5",
" .	c #C9CACE",
"..	c #B2B0B3",
"+.	c #A5A4A8",
"@.	c #B9B9BC",
"#.	c #B1B1B4",
"$.	c #B7B8BB",
"%.	c #8F9092",
"&.	c #2D2D2E",
"*.	c #393B3B",
"=.	c #AAACAF",
"-.	c #D4D4D5",
";.	c #949496",
">.	c #949395",
",.	c #A5A4A7",
"'.	c #ECECED",
").	c #E9E9EA",
"!.	c #DCDCDF",
"~.	c #D9D9DC",
"{.	c #D4D4D8",
"].	c #CFCFD2",
"^.	c #C8C8CC",
"/.	c #C2C2C5",
"(.	c #BAB9BD",
"_.	c #B5B6BA",
":.	c #9A999B",
"<.	c #6A696A",
"[.	c #878788",
"}.	c #6E6D6F",
"|.	c #2F3031",
"1.	c #2B2C2D",
"2.	c #424242",
"3.	c #BDBFC2",
"4.	c #9C9B9D",
"5.	c #7F7F81",
"6.	c #8B8B8C",
"7.	c #9C9C9E",
"8.	c #EAEAEB",
"9.	c #E5E4E7",
"0.	c #E2E2E4",
"a.	c #DFDFE1",
"b.	c #DBDBDD",
"c.	c #D6D6D9",
"d.	c #D0D0D4",
"e.	c #C3C3C6",
"f.	c #BEBFC3",
"g.	c #BDBDC1",
"h.	c #B0B0B3",
"i.	c #3A3A3B",
"j.	c #363638",
"k.	c #313133",
"l.	c #2E2F2F",
"m.	c #2B2B2C",
"n.	c #242626",
"o.	c #747476",
"p.	c #C0BFC0",
"q.	c #717173",
"r.	c #7E7E80",
"s.	c #878789",
"t.	c #8C8C8E",
"u.	c #E5E5E6",
"v.	c #E6E6E7",
"w.	c #E3E3E5",
"x.	c #DEDEE2",
"y.	c #CCCCD0",
"z.	c #C1C0C4",
"A.	c #BCBBBF",
"B.	c #B5B6B9",
"C.	c #504F51",
"D.	c #323334",
"E.	c #292A2B",
"F.	c #242525",
"G.	c #29292A",
"H.	c #B6B9BB",
"I.	c #8C8C8C",
"J.	c #707072",
"K.	c #7B7B7C",
"L.	c #828384",
"M.	c #838486",
"N.	c #D3D2D4",
"O.	c #E3E3E4",
"P.	c #E1E1E3",
"Q.	c #DFDEE1",
"R.	c #DADADD",
"S.	c #D1D2D5",
"T.	c #C6C5C9",
"U.	c #BEBEC2",
"V.	c #B8B8BB",
"W.	c #B7B8BC",
"X.	c #7A7A7C",
"Y.	c #353637",
"Z.	c #303031",
"`.	c #28282A",
" +	c #242526",
".+	c #1F2021",
"++	c #707173",
"@+	c #C8C8C9",
"#+	c #666567",
"$+	c #6E6E70",
"%+	c #79797B",
"&+	c #818183",
"*+	c #C3C3C3",
"=+	c #E6E6E8",
"-+	c #E4E4E5",
";+	c #757576",
">+	c #D0D0D3",
",+	c #CBCBCE",
"'+	c #C5C5C8",
")+	c #BEBEC1",
"!+	c #B6B6BB",
"~+	c #B8B8BD",
"{+	c #A9AAAE",
"]+	c #353435",
"^+	c #262728",
"/+	c #222323",
"(+	c #1D1E1F",
"_+	c #333233",
":+	c #B7BABF",
"<+	c #A4A3A3",
"[+	c #59585A",
"}+	c #656467",
"|+	c #707071",
"1+	c #77777A",
"2+	c #7C7C7E",
"3+	c #AFAFB0",
"4+	c #DADADE",
"5+	c #737374",
"6+	c #A5A3A5",
"7+	c #C1C1C5",
"8+	c #BBBCBF",
"9+	c #B7B7BB",
"0+	c #B3B4B9",
"a+	c #AFB0B5",
"b+	c #B2B4B8",
"c+	c #5D5D5D",
"d+	c #2D2D2F",
"e+	c #2A2A2B",
"f+	c #252526",
"g+	c #212223",
"h+	c #1B1C1D",
"i+	c #161617",
"j+	c #AAADB0",
"k+	c #8C8A8B",
"l+	c #5A5A5C",
"m+	c #656566",
"n+	c #6D6D6F",
"o+	c #777879",
"p+	c #DEDEE0",
"q+	c #D9D9DD",
"r+	c #767576",
"s+	c #CFCED2",
"t+	c #B9B9BD",
"u+	c #B5B5B9",
"v+	c #B2B2B7",
"w+	c #AEAFB5",
"x+	c #B2B4B9",
"y+	c #9B9C9F",
"z+	c #2B2C2C",
"A+	c #272828",
"B+	c #222324",
"C+	c #1E1F1F",
"D+	c #1A1A1B",
"E+	c #808184",
"F+	c #777676",
"G+	c #525254",
"H+	c #5B5B5C",
"I+	c #656567",
"J+	c #6D6D6E",
"K+	c #939395",
"L+	c #DEDDE0",
"M+	c #DDDDE1",
"N+	c #DDDDDF",
"O+	c #DAD9DD",
"P+	c #C2C1C4",
"Q+	c #585759",
"R+	c #B8B7B9",
"S+	c #C6C6CA",
"T+	c #C0BFC4",
"U+	c #B9BABE",
"V+	c #B3B2B7",
"W+	c #B1B2B7",
"X+	c #ADB0B4",
"Y+	c #ADAFB4",
"Z+	c #A9ABB1",
"`+	c #5D5D60",
" @	c #252627",
".@	c #202122",
"+@	c #1C1C1E",
"@@	c #171819",
"#@	c #141515",
"$@	c #6A6C6F",
"%@	c #6F6D6E",
"&@	c #545455",
"*@	c #5D5D5F",
"=@	c #6B6C6D",
"-@	c #8A8A8A",
";@	c #DFDFE2",
">@	c #D4D4D7",
",@	c #737273",
"'@	c #8C8C8D",
")@	c #C5C5C9",
"!@	c #BFBFC3",
"~@	c #B0B0B5",
"{@	c #ABACB2",
"]@	c #A8A9AF",
"^@	c #ABADB3",
"/@	c #ABADB2",
"(@	c #1E1F20",
"_@	c #19191A",
":@	c #161717",
"<@	c #101111",
"[@	c #6C6B6C",
"}@	c #4F4E50",
"|@	c #565658",
"1@	c #5E5E5F",
"2@	c #646566",
"3@	c #69696B",
"4@	c #858585",
"5@	c #DEDFE1",
"6@	c #D8D8DB",
"7@	c #9B9A9C",
"8@	c #575658",
"9@	c #B4B4B8",
"0@	c #AFB0B4",
"a@	c #ADAEB3",
"b@	c #AAACB2",
"c@	c #A8ACB1",
"d@	c #ACAEB4",
"e@	c #929397",
"f@	c #262626",
"g@	c #181819",
"h@	c #131414",
"i@	c #0F0F10",
"j@	c #56585A",
"k@	c #706E6F",
"l@	c #4B4B4C",
"m@	c #535455",
"n@	c #5B5B5D",
"o@	c #616163",
"p@	c #636364",
"q@	c #838284",
"r@	c #DADADC",
"s@	c #D8D7DA",
"t@	c #D1D1D5",
"u@	c #7F7E7F",
"v@	c #4D4D4D",
"w@	c #A09E9F",
"x@	c #B3B3B8",
"y@	c #ACACB1",
"z@	c #AAAAB0",
"A@	c #ACADB3",
"B@	c #A4A6AC",
"C@	c #A6A8AF",
"D@	c #ACAFB6",
"E@	c #9C9FA3",
"F@	c #49494A",
"G@	c #121111",
"H@	c #0D0D0D",
"I@	c #5F5F62",
"J@	c #7C7B7D",
"K@	c #474748",
"L@	c #4F4F50",
"M@	c #565557",
"N@	c #5A5A5B",
"O@	c #8E8E90",
"P@	c #D3D3D7",
"Q@	c #CECED1",
"R@	c #7D7D7F",
"S@	c #3B3A3B",
"T@	c #79787A",
"U@	c #A9A9B0",
"V@	c #A1A2A8",
"W@	c #A3A4A9",
"X@	c #A1A3A9",
"Y@	c #A7A9AF",
"Z@	c #A5A7AD",
"`@	c #A3A5AC",
" #	c #A5A8AE",
".#	c #939499",
"+#	c #212123",
"@#	c #75767A",
"##	c #8E8D8F",
"$#	c #404042",
"%#	c #474749",
"&#	c #555556",
"*#	c #A4A3A5",
"=#	c #D6D6DA",
"-#	c #CECED2",
";#	c #C1C1C4",
">#	c #727173",
",#	c #2B2B2B",
"'#	c #7A7A7D",
")#	c #A0A1A7",
"!#	c #9B9DA4",
"~#	c #9FA2A7",
"{#	c #A2A5AB",
"]#	c #A2A4AB",
"^#	c #A1A3AA",
"/#	c #9B9DA3",
"(#	c #94969B",
"_#	c #ACADAF",
":#	c #404040",
"<#	c #444445",
"[#	c #4A494B",
"}#	c #4E4F50",
"|#	c #4F4F51",
"1#	c #BBBBBC",
"2#	c #D2D2D5",
"3#	c #CFCFD3",
"4#	c #CCCBD0",
"5#	c #BDBDC0",
"6#	c #B1B0B5",
"7#	c #9A9A9E",
"8#	c #58585A",
"9#	c #2D2D2D",
"0#	c #323233",
"a#	c #929399",
"b#	c #9C9EA5",
"c#	c #9FA1A7",
"d#	c #9EA0A7",
"e#	c #9DA0A7",
"f#	c #9FA2A9",
"g#	c #909198",
"h#	c #818387",
"i#	c #9FA1A6",
"j#	c #605F60",
"k#	c #3D3D3F",
"l#	c #434344",
"m#	c #767474",
"n#	c #D7D8DA",
"o#	c #CDCCD0",
"p#	c #BCBCBF",
"q#	c #B9BABD",
"r#	c #AEAEB3",
"s#	c #A5A5AB",
"t#	c #9A9CA2",
"u#	c #8C8D93",
"v#	c #343334",
"w#	c #2A2A2C",
"x#	c #888A8F",
"y#	c #7A7B80",
"z#	c #606164",
"A#	c #414142",
"B#	c #1A1A1A",
"C#	c #060606",
"D#	c #9B9B9D",
"E#	c #3C3C3D",
"F#	c #575657",
"G#	c #CECDD1",
"H#	c #C4C4C8",
"I#	c #BEBEC3",
"J#	c #B6B6BA",
"K#	c #B5B4B9",
"L#	c #A8A8AE",
"M#	c #9A9BA2",
"N#	c #999BA0",
"O#	c #89898E",
"P#	c #515052",
"Q#	c #111212",
"R#	c #0E0D0F",
"S#	c #0B0B0B",
"T#	c #070708",
"U#	c #101010",
"V#	c #898A90",
"W#	c #626162",
"X#	c #373739",
"Y#	c #ABA9AB",
"Z#	c #CFCED3",
"`#	c #CFD0D3",
" $	c #CDCCD1",
".$	c #C9CACD",
"+$	c #C2C2C6",
"@$	c #BBBBBF",
"#$	c #BABABE",
"$$	c #9899A0",
"%$	c #97999F",
"&$	c #464649",
"*$	c #111112",
"=$	c #0E0E0F",
"-$	c #0B0B0C",
";$	c #050506",
">$	c #525255",
",$	c #A7A7A9",
"'$	c #696868",
")$	c #CACACE",
"!$	c #CACACD",
"~$	c #C8C8CB",
"{$	c #B9B7B9",
"]$	c #908F92",
"^$	c #4F4F4E",
"/$	c #454343",
"($	c #B0AFB1",
"_$	c #B3B3B7",
":$	c #A9A9AF",
"<$	c #A3A2A9",
"[$	c #868589",
"}$	c #1A1919",
"|$	c #121313",
"1$	c #121213",
"2$	c #09090A",
"3$	c #211F20",
"4$	c #8C8D92",
"5$	c #C1C0C3",
"6$	c #A7A5A7",
"7$	c #858484",
"8$	c #676566",
"9$	c #3F3E3F",
"0$	c #2D2E2F",
"a$	c #28292A",
"b$	c #343536",
"c$	c #716F70",
"d$	c #545456",
"e$	c #191819",
"f$	c #101112",
"g$	c #080809",
"h$	c #878990",
"i$	c #949293",
"j$	c #343433",
"k$	c #2F2F30",
"l$	c #2C2C2D",
"m$	c #1A1B1C",
"n$	c #141415",
"o$	c #0F1010",
"p$	c #0C0C0D",
"q$	c #0A0A0B",
"r$	c #151516",
"s$	c #7E8085",
"t$	c #ACABAD",
"u$	c #3E3F3F",
"v$	c #272728",
"w$	c #222223",
"x$	c #1F1F20",
"y$	c #1D1F1F",
"z$	c #1B1B1C",
"A$	c #171818",
"B$	c #0C0C0C",
"C$	c #060607",
"D$	c #1F1E1F",
"E$	c #7E8187",
"F$	c #6A6A6A",
"G$	c #202021",
"H$	c #1E1E1F",
"I$	c #1E1D1E",
"J$	c #1B1B1B",
"K$	c #101011",
"L$	c #0D0D0E",
"M$	c #09090B",
"N$	c #4D4E51",
"O$	c #ADACAF",
"P$	c #262525",
"Q$	c #171717",
"R$	c #151616",
"S$	c #131314",
"T$	c #111011",
"U$	c #151515",
"V$	c #464749",
"W$	c #797A80",
"X$	c #969598",
"Y$	c #737173",
"Z$	c #4C4B4E",
"`$	c #424245",
" %	c #4C4A4C",
".%	c #5F5E61",
"+%	c #797A7F",
"                                                                ",
"                        . + @ # $ % & *                         ",
"                  = - ; > , ' ) ! ~ { ] ^ / (                   ",
"                _ : < [ } | 1 2 3 4 5 6 7 8 9 0 a               ",
"            b c d e f g h i j k l m n o p q r s t u             ",
"          v w x y z A B C i 1 D E F G H I J K L M N O           ",
"        P Q R S T U V W X i Y Z `  .G ..+.@.#.$.%.&.*.=.        ",
"      -.;.>.,.'.).f g X i !.~.{.].^./.(._.:.<.[.}.|.1.2.3.      ",
"      4.5.6.7.U 8.V B 9.0.a.b.c.d.4 e.f.g.h.i.j.k.l.m.n.o.      ",
"    p.q.r.s.t.u.B v.w.| x.!.D 3 y.^.z.A.$.B.C.j.D.&.E.F.G.H.    ",
"    I.J.K.L.M.N.X O.P.Q.!.R.c.S.F T.U.V.0 W.X.Y.Z.&.`. +.+++    ",
"  @+#+$+%+&+; *+=+g -+0.. ;+>+E ,+'+)+!+_.~+{+]+&.1.^+/+(+_+:+  ",
"  <+[+}+|+1+2+3+X X w.| 4+5+6+].^.7+8+9+0+a+b+c+d+e+f+g+h+i+j+  ",
"  k+l+m+n+o.o+7.a.p+!.q+q+4.r+s+4 /.t+u+v+w+x+y+z+A+B+C+D+i+E+  ",
"  F+G+H+I+J+++K+L+L+M+N+O+P+Q+R+S+T+U+V+W+X+Y+Z+`+ @.@+@@@#@$@  ",
"  %@&@*@I+=@$+-@;@p+!.Z k >@,@'@)@!@t+~@{@]@{@^@/@D.(@_@:@<@l+  ",
"  [@}@|@1@2@3@4@5@1 j q+6@2 7@8@9@8+9@0@~@a@b@c@d@e@f@g@h@i@j@  ",
"  k@l@m@n@o@p@q@r@6@2 s@{.t@,+u@v@w@x@y@z@A@B@^@C@D@E@F@G@H@I@  ",
"  J@K@L@M@N@n@O@6@~.D P@S.Q@y.m R@S@T@U@V@W@X@Y@Z@Z@`@ #.#+#@#  ",
"  ##$#%#}@&#|@*#Z =#=#P@t@-#^.;#t+>#,#N '#)#!#X@~#{#]#^#`@/#(#  ",
"  _#:#<#[#}#|#1#k >@E 2#3#4#S+5#0 6#7#8#9#0#a#b#c#d#e#f#g#h#i#  ",
"    j#k#l#F@m#6@n#2 P@d.o#m ;#p#q#r#s#t#u#v#w#x#y#z#A#B#C#l+    ",
"    D#E#N F#;#>@{.{.t@G#y.H#I#J#K#L#M#N#O#P#g@h@Q#R#S#T#U#V#    ",
"      W#X#Y#Z#d.d.`# $F .$+$@$#$y@)#$$%$&$i+#@*$=$-$T#;$>$      ",
"      ,$'$^.)$)$!$~${$]$,@^$/$($_$:$<$[$}$|$1$=$-$2$;$3$4$      ",
"        5 5$6$7$8$9$Z.0$m.a$^+b$c$1+d$e$Q#f$=$-$g$;$g@h$        ",
"          i$j$k$d+0$l$E.G.f+B+C+m$g@n$Q#o$p$q$T#;$r$s$          ",
"            t$u$a$v$f+B+w$x$y$z$A$#@*$=$B$g$C$;$D$E$            ",
"                F$G$x$H$I$J$A$#@Q#K$L$M$T#C$S#N$                ",
"                  O$1@P$Q$R$S$T$=$-$g$;$U$V$W$                  ",
"                        X$Y$>$Z$`$ %.%+%                        ",
"                                                                "};
