/* XPM */
static char * bells16_xpm[] = {
"16 16 151 2",
"  	c None",
". 	c #A6A5A6",
"+ 	c #ADACAE",
"@ 	c #B7B7B8",
"# 	c #B2B2B5",
"$ 	c #ACABAE",
"% 	c #9E9FA3",
"& 	c #B1B1B2",
"* 	c #D6D6D7",
"= 	c #E7E7E9",
"- 	c #E2E1E4",
"; 	c #DADADD",
"> 	c #CACACE",
", 	c #AEADB1",
"' 	c #97979C",
") 	c #AAA9AC",
"! 	c #676766",
"~ 	c #9E9E9F",
"{ 	c #BEBEBF",
"] 	c #E9E9EB",
"^ 	c #E6E6E8",
"/ 	c #E1E1E3",
"( 	c #D9D9DC",
"_ 	c #CDCDD0",
": 	c #BEBEC1",
"< 	c #ACACAF",
"[ 	c #98999B",
"} 	c #585859",
"| 	c #848487",
"1 	c #C0C0C1",
"2 	c #E4E4E6",
"3 	c #DFDFE1",
"4 	c #D6D6DA",
"5 	c #CBCCCF",
"6 	c #BFBEC2",
"7 	c #404042",
"8 	c #303031",
"9 	c #262728",
"0 	c #78797A",
"a 	c #7E7E7F",
"b 	c #A8A9AA",
"c 	c #E5E5E6",
"d 	c #E1E1E4",
"e 	c #BBBBBD",
"f 	c #D4D4D7",
"g 	c #C8C8CB",
"h 	c #BBBBBE",
"i 	c #B9BABE",
"j 	c #646465",
"k 	c #2E2F30",
"l 	c #252526",
"m 	c #424141",
"n 	c #626264",
"o 	c #737475",
"p 	c #8C8C8E",
"q 	c #DEDEE1",
"r 	c #AFAEB0",
"s 	c #B6B6B9",
"t 	c #C5C5C9",
"u 	c #B9B9BD",
"v 	c #B1B1B6",
"w 	c #909295",
"x 	c #2A2B2C",
"y 	c #212223",
"z 	c #18181A",
"A 	c #575658",
"B 	c #68686A",
"C 	c #7D7F80",
"D 	c #DFDFE0",
"E 	c #DADADE",
"F 	c #7E7D7F",
"G 	c #C2C2C5",
"H 	c #B4B4B8",
"I 	c #ADAFB4",
"J 	c #5E5E60",
"K 	c #1E1E1F",
"L 	c #151616",
"M 	c #525354",
"N 	c #606063",
"O 	c #767677",
"P 	c #D7D6DA",
"Q 	c #999899",
"R 	c #8A898C",
"S 	c #B0B0B5",
"T 	c #ABACB1",
"U 	c #ABAEB2",
"V 	c #A1A3A9",
"W 	c #4F4F52",
"X 	c #0F1010",
"Y 	c #484849",
"Z 	c #545456",
"` 	c #7A7A7C",
" .	c #D9D9DD",
"..	c #D6D5D9",
"+.	c #CFD0D3",
"@.	c #C4C3C7",
"#.	c #78787A",
"$.	c #666567",
"%.	c #929398",
"&.	c #9EA1A7",
"*.	c #9FA2A9",
"=.	c #7F7F83",
"-.	c #434344",
";.	c #4A4A4B",
">.	c #A09FA0",
",.	c #D7D7DA",
"'.	c #D2D2D6",
").	c #CBCBCF",
"!.	c #C2C2C6",
"~.	c #B5B4BA",
"{.	c #929399",
"].	c #535355",
"^.	c #7C7E81",
"/.	c #888A90",
"(.	c #636568",
"_.	c #57585C",
":.	c #525152",
"<.	c #D1D1D5",
"[.	c #CECDD1",
"}.	c #C6C6CB",
"|.	c #BCBCC1",
"1.	c #ABABB0",
"2.	c #9C9DA3",
"3.	c #131414",
"4.	c #0D0D0E",
"5.	c #070708",
"6.	c #B4B3B5",
"7.	c #8A8B8C",
"8.	c #6A6A6C",
"9.	c #424242",
"0.	c #585758",
"a.	c #919195",
"b.	c #565658",
"c.	c #121314",
"d.	c #0E0E0F",
"e.	c #080809",
"f.	c #39383A",
"g.	c #454646",
"h.	c #2A2A2B",
"i.	c #282829",
"j.	c #232425",
"k.	c #1E1F1F",
"l.	c #171718",
"m.	c #111112",
"n.	c #0C0C0D",
"o.	c #2D2D2E",
"p.	c #19191A",
"q.	c #141414",
"r.	c #0F0F10",
"s.	c #09090A",
"t.	c #1A191A",
"                                ",
"          . + @ # $ %           ",
"      & * = - ; > , ' ) !       ",
"    ~ { ] ^ / ( _ : < [ } }     ",
"    | 1 = 2 3 4 5 6 # 7 8 9     ",
"  0 a b c d e f g h i j k l m   ",
"  n o p / q r s t u v w x y z   ",
"  A B C D E _ F G H I I J K L   ",
"  M N O ; ( P Q R S T U V W X   ",
"  Y Z `  ...+.@.#.$.%.V &.*.=.  ",
"  -.;.>.,.'.).!.~.{.].^./.(._.  ",
"    :.<.'.[.}.|.1.2.W 3.4.5.    ",
"    6., 7.8.9.0.a.b.c.d.e.f.    ",
"      g.h.i.j.k.l.m.n.5.o.      ",
"          8 p.q.r.s.t.          ",
"                                "};
